<svg width="15" height="14" viewBox="0 0 15 14" fill="none" xmlns="http://www.w3.org/2000/svg">
<path d="M7.67187 0C11.538 0 14.6719 3.1339 14.6719 7C14.6719 10.8661 11.538 14 7.67187 14C3.80578 14 0.671875 10.8661 0.671875 7C0.671875 3.1339 3.80578 0 7.67187 0ZM7.67187 9.8C7.48622 9.8 7.30818 9.87375 7.1769 10.005C7.04562 10.1363 6.97187 10.3143 6.97187 10.5C6.97187 10.6857 7.04562 10.8637 7.1769 10.995C7.30818 11.1263 7.48622 11.2 7.67187 11.2C7.85753 11.2 8.03557 11.1263 8.16685 10.995C8.29812 10.8637 8.37187 10.6857 8.37187 10.5C8.37187 10.3143 8.29812 10.1363 8.16685 10.005C8.03557 9.87375 7.85753 9.8 7.67187 9.8ZM7.67187 3.15C6.99889 3.15 6.35347 3.41734 5.87759 3.89322C5.40172 4.36909 5.13437 5.01451 5.13437 5.6875C5.13437 5.87315 5.20812 6.0512 5.3394 6.18247C5.47068 6.31375 5.64872 6.3875 5.83437 6.3875C6.02003 6.3875 6.19807 6.31375 6.32935 6.18247C6.46062 6.0512 6.53437 5.87315 6.53437 5.6875C6.53461 5.48103 6.59103 5.27851 6.6976 5.10166C6.80417 4.92482 6.95687 4.78031 7.13932 4.68364C7.32177 4.58698 7.52708 4.54179 7.73326 4.55293C7.93943 4.56408 8.13868 4.63112 8.30965 4.74689C8.48062 4.86266 8.61685 5.02278 8.70374 5.21008C8.79063 5.39738 8.82491 5.6048 8.80289 5.8101C8.78086 6.01539 8.70338 6.21082 8.57874 6.37544C8.4541 6.54005 8.28701 6.66763 8.09537 6.7445C7.62217 6.9335 6.97187 7.4179 6.97187 8.225V8.4C6.97187 8.58565 7.04562 8.7637 7.1769 8.89497C7.30818 9.02625 7.48622 9.1 7.67187 9.1C7.85753 9.1 8.03557 9.02625 8.16685 8.89497C8.29812 8.7637 8.37187 8.58565 8.37187 8.4C8.37187 8.2292 8.40687 8.1438 8.55457 8.071L8.61547 8.043C9.16204 7.82313 9.61511 7.41997 9.89699 6.90264C10.1789 6.38532 10.272 5.78605 10.1605 5.20757C10.0489 4.62909 9.73959 4.10743 9.28555 3.73203C8.8315 3.35663 8.26101 3.15086 7.67187 3.15Z" fill="#A8A6BF"/>
</svg>
