<svg width="137" height="136" viewBox="0 0 137 136" fill="none" xmlns="http://www.w3.org/2000/svg">
<rect x="1" y="0.5" width="135" height="135" rx="67.5" stroke="#CFCFD9"/>
<path d="M83.34 41.4946C86.2762 44.4318 88.2756 48.1737 89.0853 52.2471C89.895 56.3205 89.4787 60.5425 87.8891 64.3794C86.2995 68.2162 83.6078 71.4956 80.1546 73.8028C76.7013 76.11 72.6414 77.3415 68.4883 77.3415C64.3352 77.3415 60.2753 76.11 56.822 73.8028C53.3687 71.4956 50.6771 68.2162 49.0875 64.3794C47.4978 60.5425 47.0816 56.3205 47.8913 52.2471C48.701 48.1737 50.7004 44.4318 53.6366 41.4946M68.5 30.668V54.0013" stroke="#25D3B1" stroke-width="4" stroke-linecap="round" stroke-linejoin="round"/>
<path d="M68.0639 98.1818C68.0639 99.4508 67.8234 100.53 67.3423 101.42C66.8651 102.311 66.2135 102.991 65.3878 103.46C64.5658 103.926 63.6416 104.159 62.6151 104.159C61.581 104.159 60.6529 103.924 59.831 103.455C59.009 102.985 58.3594 102.305 57.8821 101.415C57.4048 100.525 57.1662 99.447 57.1662 98.1818C57.1662 96.9129 57.4048 95.8333 57.8821 94.9432C58.3594 94.053 59.009 93.375 59.831 92.9091C60.6529 92.4394 61.581 92.2045 62.6151 92.2045C63.6416 92.2045 64.5658 92.4394 65.3878 92.9091C66.2135 93.375 66.8651 94.053 67.3423 94.9432C67.8234 95.8333 68.0639 96.9129 68.0639 98.1818ZM65.5696 98.1818C65.5696 97.3598 65.4465 96.6667 65.2003 96.1023C64.9579 95.5379 64.6151 95.1098 64.1719 94.8182C63.7287 94.5265 63.2098 94.3807 62.6151 94.3807C62.0204 94.3807 61.5014 94.5265 61.0582 94.8182C60.6151 95.1098 60.2704 95.5379 60.0241 96.1023C59.7817 96.6667 59.6605 97.3598 59.6605 98.1818C59.6605 99.0038 59.7817 99.697 60.0241 100.261C60.2704 100.826 60.6151 101.254 61.0582 101.545C61.5014 101.837 62.0204 101.983 62.6151 101.983C63.2098 101.983 63.7287 101.837 64.1719 101.545C64.6151 101.254 64.9579 100.826 65.2003 100.261C65.4465 99.697 65.5696 99.0038 65.5696 98.1818ZM79.6193 92.3636V104H77.4943L72.4318 96.6761H72.3466V104H69.8864V92.3636H72.0455L77.0682 99.6818H77.1705V92.3636H79.6193Z" fill="#25D3B1"/>
</svg>
