<svg width="137" height="136" viewBox="0 0 137 136" fill="none" xmlns="http://www.w3.org/2000/svg">
<rect x="1" y="0.5" width="135" height="135" rx="67.5" stroke="#CFCFD9"/>
<path d="M83.34 41.4946C86.2762 44.4318 88.2756 48.1737 89.0853 52.2471C89.895 56.3205 89.4787 60.5425 87.8891 64.3794C86.2995 68.2162 83.6078 71.4956 80.1546 73.8028C76.7013 76.11 72.6414 77.3415 68.4883 77.3415C64.3352 77.3415 60.2753 76.11 56.822 73.8028C53.3687 71.4956 50.6771 68.2162 49.0875 64.3794C47.4978 60.5425 47.0816 56.3205 47.8913 52.2471C48.701 48.1737 50.7004 44.4318 53.6366 41.4946M68.5 30.668V54.0013" stroke="#120242" stroke-width="4" stroke-linecap="round" stroke-linejoin="round"/>
<path d="M64.5874 98.1818C64.5874 99.4508 64.3468 100.53 63.8658 101.42C63.3885 102.311 62.737 102.991 61.9112 103.46C61.0893 103.926 60.165 104.159 59.1385 104.159C58.1044 104.159 57.1764 103.924 56.3544 103.455C55.5324 102.985 54.8828 102.305 54.4055 101.415C53.9283 100.525 53.6896 99.447 53.6896 98.1818C53.6896 96.9129 53.9283 95.8333 54.4055 94.9432C54.8828 94.053 55.5324 93.375 56.3544 92.9091C57.1764 92.4394 58.1044 92.2045 59.1385 92.2045C60.165 92.2045 61.0893 92.4394 61.9112 92.9091C62.737 93.375 63.3885 94.053 63.8658 94.9432C64.3468 95.8333 64.5874 96.9129 64.5874 98.1818ZM62.093 98.1818C62.093 97.3598 61.9699 96.6667 61.7237 96.1023C61.4813 95.5379 61.1385 95.1098 60.6953 94.8182C60.2521 94.5265 59.7332 94.3807 59.1385 94.3807C58.5438 94.3807 58.0249 94.5265 57.5817 94.8182C57.1385 95.1098 56.7938 95.5379 56.5476 96.1023C56.3052 96.6667 56.1839 97.3598 56.1839 98.1818C56.1839 99.0038 56.3052 99.697 56.5476 100.261C56.7938 100.826 57.1385 101.254 57.5817 101.545C58.0249 101.837 58.5438 101.983 59.1385 101.983C59.7332 101.983 60.2521 101.837 60.6953 101.545C61.1385 101.254 61.4813 100.826 61.7237 100.261C61.9699 99.697 62.093 99.0038 62.093 98.1818ZM66.4098 104V92.3636H74.1143V94.392H68.87V97.1648H73.603V99.1932H68.87V104H66.4098ZM75.7692 104V92.3636H83.4737V94.392H78.2294V97.1648H82.9624V99.1932H78.2294V104H75.7692Z" fill="#120242"/>
</svg>
