<svg width="28" height="28" viewBox="0 0 28 28" fill="none" xmlns="http://www.w3.org/2000/svg">
<rect width="28" height="28" rx="14" fill="#25D3B1"/>
<path fill-rule="evenodd" clip-rule="evenodd" d="M8 14.3999C8 12.7209 9.45827 11.3599 11.2571 11.3599H16.7429C18.5417 11.3599 20 12.7209 20 14.3999V16.9599C20 18.6388 18.5417 19.9999 16.7429 19.9999H11.2571C9.45827 19.9999 8 18.6388 8 16.9599V14.3999ZM14.75 15.04C14.75 14.6258 14.4142 14.29 14 14.29C13.5858 14.29 13.25 14.6258 13.25 15.04V16.32C13.25 16.7343 13.5858 17.07 14 17.07C14.4142 17.07 14.75 16.7343 14.75 16.32V15.04Z" fill="#120242"/>
<path d="M16.7445 11.84V10.7429C16.7445 9.22802 15.5165 8 14.0016 8V8C12.4868 8 11.2588 9.22802 11.2588 10.7429L11.2588 11.84" stroke="#120242" stroke-width="1.5"/>
</svg>
