<svg width="13" height="24" viewBox="0 0 13 24" fill="none" xmlns="http://www.w3.org/2000/svg">
<path fill-rule="evenodd" clip-rule="evenodd" d="M0.041687 12C0.041687 10.5272 1.19828 9.33331 2.62502 9.33331C4.05176 9.33331 5.20835 10.5272 5.20835 12C5.20835 13.4727 4.05176 14.6666 2.62502 14.6666C1.19828 14.6666 0.041687 13.4727 0.041687 12Z" fill="white"/>
<path fill-rule="evenodd" clip-rule="evenodd" d="M0.041687 2.66667C0.041687 1.19391 1.19828 0 2.62502 0C4.05176 0 5.20835 1.19391 5.20835 2.66667C5.20835 4.13943 4.05176 5.33333 2.62502 5.33333C1.19828 5.33333 0.041687 4.13943 0.041687 2.66667Z" fill="white"/>
<path fill-rule="evenodd" clip-rule="evenodd" d="M0.041687 21.3333C0.041687 19.8606 1.19828 18.6667 2.62502 18.6667C4.05176 18.6667 5.20835 19.8606 5.20835 21.3333C5.20835 22.8061 4.05176 24 2.62502 24C1.19828 24 0.041687 22.8061 0.041687 21.3333Z" fill="white"/>
<path fill-rule="evenodd" clip-rule="evenodd" d="M7.79169 12C7.79169 10.5272 8.94828 9.33331 10.375 9.33331C11.8018 9.33331 12.9584 10.5272 12.9584 12C12.9584 13.4727 11.8018 14.6666 10.375 14.6666C8.94828 14.6666 7.79169 13.4727 7.79169 12Z" fill="white"/>
<path fill-rule="evenodd" clip-rule="evenodd" d="M7.79169 2.66667C7.79169 1.19391 8.94828 0 10.375 0C11.8018 0 12.9584 1.19391 12.9584 2.66667C12.9584 4.13943 11.8018 5.33333 10.375 5.33333C8.94828 5.33333 7.79169 4.13943 7.79169 2.66667Z" fill="white"/>
<path fill-rule="evenodd" clip-rule="evenodd" d="M7.79169 21.3333C7.79169 19.8606 8.94828 18.6667 10.375 18.6667C11.8018 18.6667 12.9584 19.8606 12.9584 21.3333C12.9584 22.8061 11.8018 24 10.375 24C8.94828 24 7.79169 22.8061 7.79169 21.3333Z" fill="white"/>
</svg>
